# xmcd
#
# Track frame offsets:
#	150
#	18577
#	31740
#	48507
#	59422
#	70902
#	89402
#	110860
#	131582
#	152865
#
# Disc length: 2282 seconds
#
# Revision: 0
# Processed by: cddbd v1.4PL0 Copyright (c) Steve Scherf et al.
# Submitted via: EasyCDDAExtractor 4.6.9.1
#
DISCID=8b08e80a
DTITLE=Juan Gabriel - Inocente de ti
DYEAR=2003
DGENRE=Regional Mexican
TTITLE0=Inocente de ti
TTITLE1=Yo te recuerdo
TTITLE2=Loco enamorado
TTITLE3=Como te quiero
TTITLE4=Gracias por todo
TTITLE5=Amor profundo
TTITLE6=Idilio
TTITLE7=Luna llena
TTITLE8=El fin
TTITLE9=Amandote
EXTD=
EXTT0=
EXTT1=
EXTT2=
EXTT3=
EXTT4=
EXTT5=
EXTT6=
EXTT7=
EXTT8=
EXTT9=
PLAYORDER=
